<mxfile host="www.draw.io" modified="2020-01-15T07:04:05.285Z" agent="Mozilla/5.0 (Windows NT 6.1; Win64; x64) AppleWebKit/537.36 (KHTML, like Gecko) Chrome/79.0.3945.117 Safari/537.36" etag="VOHvGg3ee2kHkffP-Pl0" version="12.5.3" type="github">
  <diagram id="2f404044-711c-603c-8f00-f6bb4c023d3c" name="Page-1">
    <mxGraphModel dx="1408" dy="820" grid="1" gridSize="10" guides="1" tooltips="1" connect="1" arrows="1" fold="1" page="1" pageScale="1" pageWidth="1169" pageHeight="827" background="#ffffff" math="0" shadow="0">
      <root>
        <mxCell id="0"/>
        <mxCell id="1" parent="0"/>
        <mxCell id="6c38lbvMKDlduCXi96T2-242" value="&lt;span style=&quot;font-size: 25px&quot;&gt;Work Flow&lt;/span&gt;" style="ellipse;shape=cloud;whiteSpace=wrap;html=1;fillColor=#f8cecc;strokeColor=#b85450;" vertex="1" parent="1">
          <mxGeometry x="80" y="30" width="170" height="90" as="geometry"/>
        </mxCell>
        <mxCell id="6c38lbvMKDlduCXi96T2-249" value="" style="group" vertex="1" connectable="0" parent="1">
          <mxGeometry x="80" y="190" width="130" height="130" as="geometry"/>
        </mxCell>
        <mxCell id="6c38lbvMKDlduCXi96T2-243" value="" style="shape=datastore;whiteSpace=wrap;html=1;" vertex="1" parent="6c38lbvMKDlduCXi96T2-249">
          <mxGeometry x="10" width="60" height="60" as="geometry"/>
        </mxCell>
        <mxCell id="6c38lbvMKDlduCXi96T2-244" value="" style="shape=datastore;whiteSpace=wrap;html=1;" vertex="1" parent="6c38lbvMKDlduCXi96T2-249">
          <mxGeometry x="70" width="60" height="60" as="geometry"/>
        </mxCell>
        <mxCell id="6c38lbvMKDlduCXi96T2-245" value="" style="shape=datastore;whiteSpace=wrap;html=1;" vertex="1" parent="6c38lbvMKDlduCXi96T2-249">
          <mxGeometry x="30" y="30" width="60" height="60" as="geometry"/>
        </mxCell>
        <mxCell id="6c38lbvMKDlduCXi96T2-248" value="&lt;font style=&quot;font-size: 16px&quot;&gt;Data Source&lt;/font&gt;" style="rounded=0;whiteSpace=wrap;html=1;fillColor=none;strokeColor=none;gradientColor=none;" vertex="1" parent="6c38lbvMKDlduCXi96T2-249">
          <mxGeometry y="100" width="120" height="30" as="geometry"/>
        </mxCell>
        <mxCell id="6c38lbvMKDlduCXi96T2-277" value="" style="group" vertex="1" connectable="0" parent="1">
          <mxGeometry x="370" y="170" width="140" height="160.45" as="geometry"/>
        </mxCell>
        <mxCell id="6c38lbvMKDlduCXi96T2-275" value="" style="group" vertex="1" connectable="0" parent="6c38lbvMKDlduCXi96T2-277">
          <mxGeometry width="140" height="160.45" as="geometry"/>
        </mxCell>
        <mxCell id="6c38lbvMKDlduCXi96T2-270" value="" style="shape=step;perimeter=stepPerimeter;whiteSpace=wrap;html=1;fixedSize=1;fillColor=#d5e8d4;strokeColor=#82b366;" vertex="1" parent="6c38lbvMKDlduCXi96T2-275">
          <mxGeometry x="24.70588235294116" width="98.8235294117647" height="54.54545454545455" as="geometry"/>
        </mxCell>
        <mxCell id="6c38lbvMKDlduCXi96T2-271" value="" style="shape=step;perimeter=stepPerimeter;whiteSpace=wrap;html=1;fixedSize=1;fillColor=#d5e8d4;strokeColor=#82b366;" vertex="1" parent="6c38lbvMKDlduCXi96T2-275">
          <mxGeometry y="34.09090909090912" width="98.8235294117647" height="54.54545454545455" as="geometry"/>
        </mxCell>
        <mxCell id="6c38lbvMKDlduCXi96T2-272" value="" style="shape=step;perimeter=stepPerimeter;whiteSpace=wrap;html=1;fixedSize=1;fillColor=#d5e8d4;strokeColor=#82b366;" vertex="1" parent="6c38lbvMKDlduCXi96T2-275">
          <mxGeometry x="32.94117647058823" y="68.18181818181819" width="98.8235294117647" height="54.54545454545455" as="geometry"/>
        </mxCell>
        <mxCell id="6c38lbvMKDlduCXi96T2-273" value="&lt;font style=&quot;font-size: 16px&quot;&gt;Data Fetching Module&lt;/font&gt;" style="rounded=0;whiteSpace=wrap;html=1;fillColor=none;gradientColor=none;strokeColor=none;" vertex="1" parent="6c38lbvMKDlduCXi96T2-275">
          <mxGeometry y="139.99545454545455" width="140" height="20.454545454545457" as="geometry"/>
        </mxCell>
        <mxCell id="6c38lbvMKDlduCXi96T2-279" style="edgeStyle=isometricEdgeStyle;rounded=0;orthogonalLoop=1;jettySize=auto;html=1;fillColor=#f8cecc;strokeColor=#b85450;shape=flexArrow;elbow=vertical;width=30;endSize=6;entryX=0;entryY=0;entryDx=0;entryDy=0;" edge="1" parent="1" target="6c38lbvMKDlduCXi96T2-273">
          <mxGeometry relative="1" as="geometry">
            <mxPoint x="160" y="330" as="sourcePoint"/>
            <mxPoint x="380" y="320" as="targetPoint"/>
            <Array as="points">
              <mxPoint x="280" y="320"/>
            </Array>
          </mxGeometry>
        </mxCell>
        <mxCell id="6c38lbvMKDlduCXi96T2-308" style="edgeStyle=entityRelationEdgeStyle;shape=flexArrow;rounded=0;orthogonalLoop=1;jettySize=auto;html=1;exitX=1;exitY=0.5;exitDx=0;exitDy=0;entryX=0;entryY=0.555;entryDx=0;entryDy=0;entryPerimeter=0;endArrow=block;" edge="1" parent="1" source="6c38lbvMKDlduCXi96T2-283" target="6c38lbvMKDlduCXi96T2-302">
          <mxGeometry relative="1" as="geometry"/>
        </mxCell>
        <mxCell id="6c38lbvMKDlduCXi96T2-283" value="&lt;p style=&quot;margin: 0px ; margin-top: 4px ; text-align: center ; text-decoration: underline&quot;&gt;&lt;b&gt;DataFrame&lt;/b&gt;&lt;/p&gt;&lt;hr&gt;&lt;p style=&quot;margin: 0px ; margin-left: 8px&quot;&gt;field1 = column1&lt;br&gt;field2 = column2&lt;br&gt;field3 = column3&lt;/p&gt;&lt;p style=&quot;margin: 0px ; margin-left: 8px&quot;&gt;......&lt;/p&gt;" style="verticalAlign=top;align=left;overflow=fill;fontSize=12;fontFamily=Helvetica;html=1;fillColor=none;gradientColor=none;" vertex="1" parent="1">
          <mxGeometry x="610" y="280" width="110" height="90" as="geometry"/>
        </mxCell>
        <mxCell id="6c38lbvMKDlduCXi96T2-287" value="" style="group" vertex="1" connectable="0" parent="1">
          <mxGeometry x="610" y="140" width="140" height="90" as="geometry"/>
        </mxCell>
        <mxCell id="6c38lbvMKDlduCXi96T2-281" value="&lt;font style=&quot;font-size: 16px&quot;&gt;CSV Files&lt;/font&gt;" style="whiteSpace=wrap;html=1;shape=mxgraph.basic.document;fillColor=#fff2cc;strokeColor=#d6b656;" vertex="1" parent="6c38lbvMKDlduCXi96T2-287">
          <mxGeometry y="10" width="110" height="70" as="geometry"/>
        </mxCell>
        <mxCell id="6c38lbvMKDlduCXi96T2-285" value="&lt;font style=&quot;font-size: 16px&quot;&gt;CSV Files&lt;/font&gt;" style="whiteSpace=wrap;html=1;shape=mxgraph.basic.document;fillColor=#fff2cc;strokeColor=#d6b656;" vertex="1" parent="6c38lbvMKDlduCXi96T2-287">
          <mxGeometry x="20" y="20" width="110" height="70" as="geometry"/>
        </mxCell>
        <mxCell id="6c38lbvMKDlduCXi96T2-286" value="&lt;font style=&quot;font-size: 16px&quot;&gt;CSV Files&lt;/font&gt;" style="whiteSpace=wrap;html=1;shape=mxgraph.basic.document;fillColor=#fff2cc;strokeColor=#d6b656;" vertex="1" parent="6c38lbvMKDlduCXi96T2-287">
          <mxGeometry x="30" width="110" height="70" as="geometry"/>
        </mxCell>
        <mxCell id="6c38lbvMKDlduCXi96T2-290" style="edgeStyle=entityRelationEdgeStyle;shape=flexArrow;rounded=0;orthogonalLoop=1;jettySize=auto;html=1;entryX=-0.045;entryY=0.629;entryDx=0;entryDy=0;entryPerimeter=0;" edge="1" parent="1" target="6c38lbvMKDlduCXi96T2-281">
          <mxGeometry relative="1" as="geometry">
            <mxPoint x="490" y="210" as="sourcePoint"/>
          </mxGeometry>
        </mxCell>
        <mxCell id="6c38lbvMKDlduCXi96T2-291" style="edgeStyle=entityRelationEdgeStyle;shape=flexArrow;rounded=0;orthogonalLoop=1;jettySize=auto;html=1;exitX=1;exitY=0.5;exitDx=0;exitDy=0;" edge="1" parent="1" source="6c38lbvMKDlduCXi96T2-272">
          <mxGeometry relative="1" as="geometry">
            <mxPoint x="600" y="320" as="targetPoint"/>
          </mxGeometry>
        </mxCell>
        <mxCell id="6c38lbvMKDlduCXi96T2-295" value="" style="group" vertex="1" connectable="0" parent="1">
          <mxGeometry x="860" y="104.5" width="110" height="161" as="geometry"/>
        </mxCell>
        <mxCell id="6c38lbvMKDlduCXi96T2-293" value="" style="shape=actor;whiteSpace=wrap;html=1;fillColor=#f9f7ed;strokeColor=#36393d;" vertex="1" parent="6c38lbvMKDlduCXi96T2-295">
          <mxGeometry x="10" width="90" height="130" as="geometry"/>
        </mxCell>
        <mxCell id="6c38lbvMKDlduCXi96T2-294" value="&lt;font style=&quot;font-size: 16px&quot;&gt;Data Scientist&lt;/font&gt;" style="text;html=1;align=center;verticalAlign=middle;resizable=0;points=[];autosize=1;" vertex="1" parent="6c38lbvMKDlduCXi96T2-295">
          <mxGeometry y="141" width="110" height="20" as="geometry"/>
        </mxCell>
        <mxCell id="6c38lbvMKDlduCXi96T2-304" style="rounded=0;orthogonalLoop=1;jettySize=auto;html=1;exitX=0;exitY=1;exitDx=0;exitDy=0;entryX=0;entryY=0;entryDx=60;entryDy=0;entryPerimeter=0;endArrow=block;" edge="1" parent="1" source="6c38lbvMKDlduCXi96T2-297" target="6c38lbvMKDlduCXi96T2-302">
          <mxGeometry relative="1" as="geometry"/>
        </mxCell>
        <mxCell id="6c38lbvMKDlduCXi96T2-305" style="edgeStyle=none;rounded=0;orthogonalLoop=1;jettySize=auto;html=1;exitX=1;exitY=1;exitDx=0;exitDy=0;entryX=0;entryY=0;entryDx=60;entryDy=0;entryPerimeter=0;endArrow=block;" edge="1" parent="1" source="6c38lbvMKDlduCXi96T2-297" target="6c38lbvMKDlduCXi96T2-303">
          <mxGeometry relative="1" as="geometry"/>
        </mxCell>
        <mxCell id="6c38lbvMKDlduCXi96T2-297" value="&lt;font style=&quot;font-size: 16px&quot;&gt;Analyse data and generate new algorithms&lt;/font&gt;" style="ellipse;whiteSpace=wrap;html=1;fillColor=none;gradientColor=none;" vertex="1" parent="1">
          <mxGeometry x="870" y="320" width="160" height="90" as="geometry"/>
        </mxCell>
        <mxCell id="6c38lbvMKDlduCXi96T2-299" style="edgeStyle=entityRelationEdgeStyle;shape=flexArrow;rounded=0;orthogonalLoop=1;jettySize=auto;html=1;exitX=1;exitY=0.5;exitDx=0;exitDy=0;exitPerimeter=0;entryX=0.011;entryY=0.854;entryDx=0;entryDy=0;entryPerimeter=0;elbow=vertical;" edge="1" parent="1" source="6c38lbvMKDlduCXi96T2-286" target="6c38lbvMKDlduCXi96T2-293">
          <mxGeometry relative="1" as="geometry"/>
        </mxCell>
        <mxCell id="6c38lbvMKDlduCXi96T2-301" value="" style="edgeStyle=elbowEdgeStyle;elbow=horizontal;endArrow=classic;html=1;exitX=1;exitY=0.75;exitDx=0;exitDy=0;entryX=0.5;entryY=0;entryDx=0;entryDy=0;" edge="1" parent="1" source="6c38lbvMKDlduCXi96T2-293" target="6c38lbvMKDlduCXi96T2-297">
          <mxGeometry width="50" height="50" relative="1" as="geometry">
            <mxPoint x="970" y="190" as="sourcePoint"/>
            <mxPoint x="1080" y="250" as="targetPoint"/>
            <Array as="points">
              <mxPoint x="1040" y="240"/>
              <mxPoint x="1080" y="220"/>
            </Array>
          </mxGeometry>
        </mxCell>
        <mxCell id="6c38lbvMKDlduCXi96T2-302" value="&lt;font style=&quot;font-size: 15px&quot;&gt;Training&lt;br&gt;Part &lt;br&gt;Python&lt;br&gt;File&lt;br&gt;&lt;/font&gt;" style="shape=card;whiteSpace=wrap;html=1;fillColor=#DFD9FF;gradientColor=none;" vertex="1" parent="1">
          <mxGeometry x="820" y="430" width="90" height="110" as="geometry"/>
        </mxCell>
        <mxCell id="6c38lbvMKDlduCXi96T2-303" value="&lt;font style=&quot;font-size: 15px&quot;&gt;Real-time&lt;br&gt;Detection&lt;br&gt;Part&lt;br&gt;Python&lt;br&gt;File&lt;/font&gt;" style="shape=card;whiteSpace=wrap;html=1;fillColor=#DFD9FF;strokeColor=#36393d;" vertex="1" parent="1">
          <mxGeometry x="960" y="430" width="90" height="110" as="geometry"/>
        </mxCell>
      </root>
    </mxGraphModel>
  </diagram>
</mxfile>
